<?xml version="1.0" encoding="utf-8"?>
<!-- Generator: Adobe Illustrator 24.0.2, SVG Export Plug-In . SVG Version: 6.00 Build 0)  -->
<svg version="1.1" id="Calque_1" xmlns="http://www.w3.org/2000/svg" xmlns:xlink="http://www.w3.org/1999/xlink" x="0px" y="0px"
	 viewBox="0 0 500 500" style="enable-background:new 0 0 500 500;" xml:space="preserve">
<style type="text/css">
	.st0{fill:#72B72A;}
</style>
<path class="st0" d="M369.65,98.84c-11.76,7.61-23.28,15.06-35.39,22.89c-12.48-9.05-26.68-16.6-42.17-21.57
	c-81.66-26.18-168.74,22.91-187.77,106.98c-17.81,78.63,27.9,154.06,105.68,175.21c80.63,21.92,163.88-29.63,181.13-112.28
	c4.86-23.29,3.91-46.3-2.23-69.21c-0.45-1.68-0.57-4.49,0.42-5.36c9.79-8.67,20.8-15.49,32.79-20.82
	c28.08,68.44,10.72,168.78-73.56,223.1c-83.7,53.95-192.35,33.73-251.78-46.21c-57.79-77.74-46.89-188.76,28.83-253.71
	C198.86,35.02,304.35,40.39,369.65,98.84z"/>
<path class="st0" d="M248.14,257.31c5.6-9.54,10.4-18.38,15.82-26.84c39.25-61.27,91.48-107.54,158.48-136.64
	c12.87-5.59,27.64,0.15,33.33,12.88c5.71,12.78,0.06,27.55-12.77,33.28c-72.36,32.28-124.48,84.9-157.07,156.94
	c-4.52,10-7.92,20.55-11.27,31.03c-4.49,14.06-12.82,20.67-26.91,20.43c-11.04-0.19-20.27-8.33-23.41-21.27
	c-3.77-15.57-10.48-29.77-19.49-42.88c-15.07-21.92-34.82-38.19-59.33-48.67c-9.32-3.98-15.3-10.84-16.21-21.14
	c-0.99-11.19,3.8-19.75,13.59-25.07c6.36-3.46,13.25-3.98,20.19-1.17c32.55,13.17,59.07,34.06,79.85,62.31
	C244.45,252.53,246.02,254.52,248.14,257.31z"/>
</svg>
